<?xml version="1.0" standalone="no"?>
<!DOCTYPE svg PUBLIC "-//W3C//DTD SVG 20010904//EN"
 "http://www.w3.org/TR/2001/REC-SVG-20010904/DTD/svg10.dtd">
<svg version="1.0" xmlns="http://www.w3.org/2000/svg"
 width="512.000000pt" height="512.000000pt" viewBox="0 0 512.000000 512.000000"
 preserveAspectRatio="xMidYMid meet">
<metadata>
Created by potrace 1.14, written by Peter Selinger 2001-2017
</metadata>
<g transform="translate(0.000000,512.000000) scale(0.100000,-0.100000)"
fill="#000000" stroke="none">
<path d="M2304 4190 c-71 -10 -119 -27 -193 -67 -98 -52 -170 -112 -356 -294
-93 -92 -222 -217 -285 -279 -63 -61 -299 -293 -525 -515 -728 -714 -708 -694
-762 -780 -44 -71 -64 -138 -69 -230 -9 -221 141 -378 388 -401 86 -8 637 -8
720 0 l57 6 -19 -33 c-17 -29 -39 -87 -117 -301 -47 -130 -29 -241 52 -319 57
-55 107 -70 217 -65 93 4 142 20 201 68 72 58 148 198 262 480 32 80 62 148
67 151 4 3 111 6 238 6 259 1 307 10 381 67 148 113 193 347 84 442 -60 53
-181 73 -373 64 -57 -3 -105 -4 -107 -2 -2 2 13 38 32 80 19 42 64 149 100
237 36 88 71 174 78 190 7 17 60 147 118 290 57 143 138 346 181 451 42 105
83 224 92 265 22 104 15 219 -19 284 -77 151 -251 231 -443 205z m-254 -836
c0 -2 -36 -70 -80 -152 -82 -151 -177 -350 -322 -677 -115 -257 -146 -322
-156 -329 -5 -3 -112 -6 -238 -6 -126 -1 -251 -6 -278 -11 -26 -5 -52 -6 -58
-3 -5 3 30 43 78 87 111 104 188 180 451 453 287 297 389 411 523 581 30 38
61 68 68 65 6 -2 12 -6 12 -8z"/>
<path d="M3905 4184 c-113 -16 -133 -20 -209 -46 -298 -102 -520 -321 -616
-608 -38 -112 -45 -161 -45 -310 0 -138 6 -179 36 -272 57 -173 163 -300 299
-358 74 -31 194 -33 261 -3 77 34 124 85 155 168 12 34 14 48 15 99 0 62 -7
94 -35 153 -81 169 -85 184 -83 281 2 75 6 94 32 141 58 105 166 170 289 173
105 2 173 -22 247 -89 125 -113 127 -300 5 -447 -35 -42 -61 -69 -495 -514
-141 -145 -294 -303 -339 -350 -46 -48 -209 -215 -362 -372 -369 -379 -376
-386 -408 -450 -23 -48 -27 -66 -26 -140 1 -57 6 -98 18 -124 26 -58 95 -121
161 -145 57 -21 61 -21 863 -19 l807 3 51 28 c71 39 128 99 161 165 24 49 28
69 28 143 0 75 -3 90 -25 123 -29 42 -103 82 -170 93 -104 16 -902 5 -931 -12
-4 -3 -10 -1 -13 4 -3 5 31 42 77 82 77 68 463 453 938 935 260 264 324 357
385 559 23 76 27 110 28 220 1 150 -6 201 -40 305 -138 414 -567 651 -1059
584z"/>
</g>
</svg>
